<?xml version="1.0" standalone="no"?>
<!DOCTYPE svg PUBLIC "-//W3C//DTD SVG 20010904//EN"
 "http://www.w3.org/TR/2001/REC-SVG-20010904/DTD/svg10.dtd">
<svg version="1.0" xmlns="http://www.w3.org/2000/svg"
 width="728.000000pt" height="508.000000pt" viewBox="0 0 728.000000 508.000000"
 preserveAspectRatio="xMidYMid meet">

<g transform="translate(0.000000,508.000000) scale(0.100000,-0.100000)"
fill="#fff" stroke="none">
<path d="M3470 5054 c-55 -31 -93 -66 -131 -121 -61 -88 -60 -55 -57 -1229 l3
-1069 24 -60 c33 -82 115 -164 196 -195 82 -32 188 -32 268 -1 81 32 166 116
198 196 l24 60 0 1095 0 1095 -29 62 c-31 69 -98 138 -164 172 -35 18 -59 21
-164 21 -113 0 -126 -2 -168 -26z"/>
<path d="M2397 4136 c-68 -28 -169 -103 -288 -212 -222 -203 -404 -451 -527
-719 -75 -165 -99 -232 -141 -401 -52 -205 -65 -314 -65 -564 0 -191 3 -244
23 -355 90 -503 312 -924 673 -1270 314 -303 697 -504 1122 -590 117 -24 141
-25 446 -25 305 0 329 1 446 25 429 87 808 287 1125 592 433 418 676 962 696
1558 19 580 -184 1143 -569 1579 -151 172 -364 348 -465 386 -83 31 -196 26
-275 -13 -184 -90 -256 -305 -163 -487 30 -58 49 -79 168 -174 286 -230 481
-546 558 -908 26 -121 36 -364 20 -489 -20 -160 -83 -373 -147 -502 -180 -358
-493 -640 -858 -772 -249 -90 -538 -118 -782 -76 -324 56 -609 199 -832 419
-239 236 -374 486 -449 835 -28 127 -25 446 5 583 79 367 266 672 552 904 152
123 188 172 210 286 30 150 -50 307 -194 381 -41 22 -68 27 -141 30 -78 3 -98
0 -148 -21z"/>
</g>
</svg>
