<?xml version="1.0" encoding="UTF-8"?>
<svg fill="#fff" version="1.1" xmlns="http://www.w3.org/2000/svg" width="360" height="360">
<path d="M0 0 C3.8026029 2.0050088 5.61790841 3.42686262 8 7 C8.84468042 10.27661263 9.1261445 13.34366392 9.13142776 16.7186718 C9.13526891 17.64392658 9.13911005 18.56918136 9.1430676 19.52247417 C9.14220112 20.53034547 9.14133463 21.53821678 9.14044189 22.57662964 C9.14341302 23.65402063 9.14638414 24.73141161 9.1494453 25.84145081 C9.15812912 29.4579477 9.15964027 33.07441148 9.16113281 36.69091797 C9.16576113 39.28125072 9.17078581 41.87158279 9.17617798 44.46191406 C9.18974532 51.50318402 9.19578321 58.54444827 9.20018864 65.58572912 C9.20295314 69.98310943 9.20719082 74.38048754 9.21169281 78.77786636 C9.22388221 90.95589243 9.23418294 103.13391674 9.2375679 115.31194878 C9.23789725 116.48046802 9.23789725 116.48046802 9.23823325 117.67259372 C9.23845153 118.45345127 9.23866981 119.23430883 9.2388947 120.03882873 C9.23933816 121.62110067 9.23978473 123.2033726 9.24023438 124.78564453 C9.24056652 125.96293246 9.24056652 125.96293246 9.24090537 127.16400398 C9.24485449 139.88510767 9.26231342 152.60615411 9.2855939 165.32723568 C9.30930931 178.39150342 9.3217698 191.45574243 9.32293582 204.52003205 C9.32385235 211.85371719 9.32959928 219.1873277 9.34775543 226.52099228 C9.36476889 233.4172819 9.36640766 240.31342761 9.35761642 247.20973206 C9.35684433 249.74173995 9.36121131 252.27375537 9.37107468 254.80574417 C9.38374417 258.26046711 9.37794414 261.71468392 9.36749268 265.16940308 C9.37957728 266.67451787 9.37957728 266.67451787 9.39190602 268.21003902 C9.34337914 275.06191852 8.66049556 280.26759915 3.6875 285.375 C-0.48210486 287.89615642 -3.4544747 288.24490498 -8.24539185 287.48573303 C-13.23281386 285.96433077 -15.93737078 282.22710274 -19.19873047 278.35327148 C-20.62540376 276.71792753 -22.05333669 275.08368186 -23.48234558 273.45037842 C-24.61071366 272.14805393 -24.61071366 272.14805393 -25.76187706 270.81941986 C-63.10144214 223.59275434 -63.10144214 223.59275434 -114.91452026 199.34814644 C-127.54279893 198.59936026 -140.3597783 200.45195643 -152.63745117 203.26049805 C-156.66079115 204.04549305 -157.6611454 204.14731495 -161.55981445 202.45239258 C-166.22235306 197.76652962 -167.34354734 194.38243736 -167.41769409 187.90803528 C-167.41094162 186.50445015 -167.41094162 186.50445015 -167.40405273 185.07250977 C-167.41091599 184.07679962 -167.41777924 183.08108948 -167.42485046 182.0552063 C-167.44313646 178.76712747 -167.43927827 175.47952497 -167.43359375 172.19140625 C-167.43815468 169.90363917 -167.44345999 167.61587346 -167.44947815 165.32810974 C-167.45841282 160.5340315 -167.45598198 155.74011982 -167.44604492 150.94604492 C-167.43455511 144.80458797 -167.45476565 138.66370597 -167.48396206 132.52232456 C-167.5023142 127.79795178 -167.50203352 123.07371703 -167.49632454 118.34931755 C-167.4961712 116.08511486 -167.50222559 113.82090288 -167.51461601 111.55673409 C-167.52950499 108.38975147 -167.51886349 105.2238342 -167.50170898 102.05688477 C-167.51137695 101.12318558 -167.52104492 100.18948639 -167.53100586 99.22749329 C-167.46810867 93.67798391 -166.84188141 90.3097523 -163 86 C-160.28992773 83.84250173 -158.94716904 82.9477485 -155.46940613 83.13960266 C-154.11592827 83.48489265 -154.11592827 83.48489265 -152.73510742 83.8371582 C-132.91498005 88.29512159 -108.53330782 91.63756454 -90.34515381 80.35281372 C-65.12925925 62.63901103 -44.14877196 37.47585301 -23.98999023 14.39715576 C-22.91587371 13.16841877 -22.91587371 13.16841877 -21.82005787 11.91485882 C-20.49070303 10.38728423 -19.16761387 8.85422478 -17.85211468 7.31470203 C-17.26755914 6.64024383 -16.6830036 5.96578562 -16.08073425 5.27088928 C-15.32797856 4.39068162 -15.32797856 4.39068162 -14.56001568 3.49269199 C-10.34539652 -0.54004201 -5.5553537 -0.79912367 0 0 Z M-21.40240479 48.30233765 C-22.48208475 49.38831768 -23.55897224 50.47707769 -24.63378906 51.56787109 C-25.22087143 52.15962631 -25.8079538 52.75138153 -26.41282654 53.36106873 C-27.69286068 54.65163727 -28.97182154 55.94327099 -30.24985504 57.23582077 C-32.27299265 59.280885 -34.29999971 61.32203384 -36.32830811 63.36196899 C-42.0969249 69.1642682 -47.86160532 74.970428 -53.61572266 80.78710938 C-57.13118498 84.34023208 -60.65392942 87.88599316 -64.18144989 91.4271431 C-65.525426 92.77917591 -66.86661899 94.13398114 -68.20496368 95.49158859 C-70.07933736 97.39245442 -71.96282644 99.28382525 -73.84863281 101.17333984 C-74.39948044 101.73654434 -74.95032806 102.29974884 -75.51786804 102.88002014 C-80.35775132 107.69490737 -83.95636039 109.22739992 -90.70825195 109.31884766 C-91.84460083 109.33890869 -92.98094971 109.35896973 -94.1517334 109.37963867 C-95.33529419 109.39099854 -96.51885498 109.4023584 -97.73828125 109.4140625 C-98.83410522 109.43170654 -99.9299292 109.44935059 -101.05895996 109.4675293 C-105.1433254 109.53048513 -109.22793438 109.57674855 -113.3125 109.625 C-122.449375 109.74875 -131.58625 109.8725 -141 110 C-141 132.11 -141 154.22 -141 177 C-123.21488387 177.20985943 -123.21488387 177.20985943 -105.42944336 177.38793945 C-103.19122665 177.42024003 -100.95302508 177.45361525 -98.71484375 177.48828125 C-97.56310669 177.49452515 -96.41136963 177.50076904 -95.22473145 177.50720215 C-94.108927 177.52714233 -92.99312256 177.54708252 -91.84350586 177.56762695 C-90.88198105 177.57873001 -89.92045624 177.58983307 -88.92979431 177.60127258 C-81.85603808 178.56396834 -77.49181635 181.92728711 -72.71337891 186.84838867 C-72.12874878 187.43404099 -71.54411865 188.0196933 -70.94177246 188.62309265 C-69.02717925 190.54551979 -67.1270331 192.48158819 -65.2265625 194.41796875 C-63.89469883 195.75984032 -62.56186936 197.10075392 -61.2281189 198.44075012 C-57.73127889 201.95846497 -54.24619917 205.48759585 -50.76391602 209.01971436 C-45.17223636 214.68686668 -39.56156237 220.3352344 -33.953228 225.98589516 C-31.99297063 227.96391197 -30.03695284 229.94604264 -28.08169556 231.92900085 C-26.89126112 233.13264449 -25.70078301 234.33624493 -24.51025391 235.53979492 C-23.96380219 236.0961261 -23.41735046 236.65245728 -22.8543396 237.22564697 C-21.58845458 238.50277442 -20.29700461 239.75448868 -19 241 C-18.67 241 -18.34 241 -18 241 C-18 176.65 -18 112.3 -18 46 C-19.43425407 45.88468158 -19.43425407 45.88468158 -21.40240479 48.30233765 Z " fill="#fff" transform="translate(167,37)"/>
<path d="M0 0 C0.82814209 0.42982178 1.65628418 0.85964355 2.50952148 1.30249023 C3.38213623 1.74842529 4.25475098 2.19436035 5.15380859 2.65380859 C48.36194835 25.17707442 79.02635295 64.12513262 94.18530273 109.98999023 C107.98413852 154.14626475 102.41661737 203.7724752 81.58276367 244.7019043 C73.13617714 260.78891132 62.29147126 274.58601345 49.94702148 287.86499023 C49.29733398 288.58041992 48.64764648 289.29584961 47.97827148 290.03295898 C32.76073323 306.09916764 10.94552361 321.21840133 -10.24047852 327.86499023 C-15.51276698 327.86499023 -19.58283562 326.18434925 -23.49047852 322.67749023 C-25.84938302 318.43146213 -26.78678421 314.59234083 -25.52294922 309.89501953 C-22.68843602 303.42386387 -18.4738624 301.36209501 -12.24047852 298.48999023 C-10.33247207 297.54824506 -8.42752982 296.60026736 -6.52563477 295.64624023 C-5.59122559 295.17959961 -4.65681641 294.71295898 -3.6940918 294.23217773 C25.66269606 279.03546744 47.41032703 252.53384453 60.94702148 222.86499023 C61.49229492 221.68678711 62.03756836 220.50858398 62.59936523 219.29467773 C78.31932405 182.89477309 76.3189059 140.20845693 62.38842773 103.68139648 C55.94084956 87.65680586 46.46874535 73.63475012 34.94702148 60.86499023 C33.75880218 59.44892682 32.57120517 58.03234077 31.38452148 56.61499023 C18.91616351 42.59540463 3.37467779 33.15645723 -13.33496094 25.01220703 C-19.11011246 22.1421407 -23.08081902 19.80930923 -26.05297852 13.86499023 C-26.56188287 7.75813795 -26.13052461 4.73539252 -22.05297852 -0.13500977 C-14.98399823 -6.34714396 -7.62200768 -3.77761102 0 0 Z " fill="#fff" transform="translate(259.052978515625,18.135009765625)"/>
<path d="M0 0 C0.69174316 0.35457275 1.38348633 0.70914551 2.09619141 1.07446289 C12.67591421 6.66234465 21.56538248 14.3334123 30.25 22.5 C30.84039062 23.0259375 31.43078125 23.551875 32.0390625 24.09375 C52.69323415 43.2796156 64.84629049 73.27619959 66.39355469 101.07958984 C67.65855626 135.47886524 57.65242821 167.34990737 34.23046875 192.98828125 C25.77868217 201.90351216 16.93746273 209.43011699 6.25 215.5 C5.63463379 215.85304199 5.01926758 216.20608398 4.38525391 216.56982422 C-9.67453489 224.49202397 -9.67453489 224.49202397 -16.75 223.5 C-21.59551437 221.21438001 -24.32468542 218.25734783 -26.75 213.5 C-27.36166263 209.21836156 -27.09119499 207.14447943 -25.0625 203.3125 C-21.37004739 198.82167926 -17.44953989 196.19652623 -12.1875 193.8125 C8.64481006 183.61361446 24.49077607 165.16964141 32.5390625 143.57617188 C41.55957072 117.23331407 40.05985662 90.64396546 28.25 65.5 C17.81969578 45.84103951 1.70557244 32.40692538 -17.8125 22.375 C-22.13200981 20.02634525 -24.81390549 18.2019438 -26.75 13.5 C-27.53768926 8.7992738 -27.19719195 5.46593461 -25.1875 1.125 C-17.60925089 -7.03619135 -8.71914132 -4.54568289 0 0 Z " fill="#fff" transform="translate(237.75,70.5)"/>
<path d="M0 0 C14.08529816 10.43502371 24.59359853 24.32164681 28.33984375 41.7265625 C30.81183232 60.700745 27.11308716 78.57470268 15.53125 94.05078125 C13.37089285 96.50641213 11.13734477 98.79574947 8.7734375 101.0546875 C8.16113281 101.68632812 7.54882812 102.31796875 6.91796875 102.96875 C1.29709218 108.4098544 -5.84230004 112.5238918 -13.2265625 115.0546875 C-18.68592316 114.74599067 -22.05532595 113.65711906 -26.2265625 110.0546875 C-29.16439699 105.03193821 -29.68476778 101.67919358 -28.2265625 96.0546875 C-26.04294934 91.42455123 -23.47598785 89.73901466 -19.0390625 87.3046875 C-9.87811171 81.9834121 -3.51808713 75.24539653 -0.2265625 65.0546875 C2.19736258 55.01736014 1.34956168 44.82815636 -3.48046875 35.6796875 C-7.92247476 28.5143808 -13.50112773 23.35879169 -20.9765625 19.4921875 C-25.05971152 17.32014968 -27.27266783 15.38723654 -29.2265625 11.0546875 C-30.07719578 6.58662429 -29.61041774 3.78127064 -27.4765625 -0.2578125 C-19.00951273 -10.37123306 -9.75741145 -6.58693602 0 0 Z " fill="#fff" transform="translate(217.2265625,125.9453125)"/>
<path d="" fill="#fff" transform="translate(0,0)"/>
<path d="" fill="#FFFFFF" transform="translate(0,0)"/>
<path d="" fill="#FFFFFF" transform="translate(0,0)"/>
<path d="" fill="#FFFFFF" transform="translate(0,0)"/>
<path d="" fill="#FFFFFF" transform="translate(0,0)"/>
<path d="" fill="#FFFFFF" transform="translate(0,0)"/>
<path d="" fill="#FFFFFF" transform="translate(0,0)"/>
<path d="" fill="#FFFFFF" transform="translate(0,0)"/>
<path d="" fill="#FFFFFF" transform="translate(0,0)"/>
<path d="" fill="#FFFFFF" transform="translate(0,0)"/>
<path d="" fill="#FFFFFF" transform="translate(0,0)"/>
<path d="" fill="#FFFFFF" transform="translate(0,0)"/>
<path d="" fill="#FFFFFF" transform="translate(0,0)"/>
<path d="" fill="#FFFFFF" transform="translate(0,0)"/>
<path d="" fill="#FFFFFF" transform="translate(0,0)"/>
<path d="" fill="#FFFFFF" transform="translate(0,0)"/>
<path d="" fill="#FFFFFF" transform="translate(0,0)"/>
<path d="" fill="#FFFFFF" transform="translate(0,0)"/>
<path d="" fill="#FFFFFF" transform="translate(0,0)"/>
<path d="" fill="#FFFFFF" transform="translate(0,0)"/>
<path d="" fill="#FFFFFF" transform="translate(0,0)"/>
<path d="" fill="#FFFFFF" transform="translate(0,0)"/>
<path d="" fill="#FFFFFF" transform="translate(0,0)"/>
<path d="" fill="#FFFFFF" transform="translate(0,0)"/>
<path d="" fill="#FFFFFF" transform="translate(0,0)"/>
<path d="" fill="#FFFFFF" transform="translate(0,0)"/>
<path d="" fill="#FFFFFF" transform="translate(0,0)"/>
<path d="" fill="#FFFFFF" transform="translate(0,0)"/>
<path d="" fill="#FFFFFF" transform="translate(0,0)"/>
<path d="" fill="#FFFFFF" transform="translate(0,0)"/>
<path d="" fill="#FFFFFF" transform="translate(0,0)"/>
<path d="" fill="#FFFFFF" transform="translate(0,0)"/>
<path d="" fill="#FFFFFF" transform="translate(0,0)"/>
<path d="" fill="#FFFFFF" transform="translate(0,0)"/>
<path d="" fill="#FFFFFF" transform="translate(0,0)"/>
<path d="" fill="#FFFFFF" transform="translate(0,0)"/>
<path d="" fill="#FFFFFF" transform="translate(0,0)"/>
<path d="" fill="#FFFFFF" transform="translate(0,0)"/>
<path d="" fill="#FFFFFF" transform="translate(0,0)"/>
<path d="" fill="#FFFFFF" transform="translate(0,0)"/>
<path d="" fill="#FFFFFF" transform="translate(0,0)"/>
<path d="" fill="#FFFFFF" transform="translate(0,0)"/>
<path d="" fill="#FFFFFF" transform="translate(0,0)"/>
<path d="" fill="#FFFFFF" transform="translate(0,0)"/>
<path d="" fill="#FFFFFF" transform="translate(0,0)"/>
<path d="" fill="#FFFFFF" transform="translate(0,0)"/>
<path d="" fill="#FFFFFF" transform="translate(0,0)"/>
<path d="" fill="#FFFFFF" transform="translate(0,0)"/>
<path d="" fill="#FFFFFF" transform="translate(0,0)"/>
<path d="" fill="#FFFFFF" transform="translate(0,0)"/>
<path d="" fill="#FFFFFF" transform="translate(0,0)"/>
<path d="" fill="#FFFFFF" transform="translate(0,0)"/>
</svg>
